<?xml version="1.0" encoding="utf-8"?>
<!-- Generator: Adobe Illustrator 21.0.0, SVG Export Plug-In . SVG Version: 6.00 Build 0)  -->
<svg xmlns="http://www.w3.org/2000/svg" xmlns:xlink="http://www.w3.org/1999/xlink" version="1.1" id="Layer_1" x="0px" y="0px" viewBox="0 0 64 64" style="enable-background:new 0 0 64 64;" xml:space="preserve" width="512" height="512">
<style type="text/css">
	.st0{fill:#FDF1A9;}
	.st1{fill:#553B25;}
	.st2{fill:#F8BF51;}
</style>
<g>
	<path class="st0" d="M58.2,41c-2.1,0-4.1,0.6-5.8,1.7l-3.2,2.1l0,0l0.8-5.4c0-1.9-1.6-3.5-3.5-3.5S43,37.6,43,39.5l0.8,5.5l0,0   l-3.2-2.3c-1.7-1.1-3.7-1.7-5.8-1.7H33c0,3.2,1.4,6.1,3.9,8.1L38,50l3,2h11l3-2l1.1-0.9c2.5-2,3.9-5,3.9-8.1H58.2z"/>
	<path class="st1" d="M7,57c0-2,0.6-3.9,1.7-5.5l10.4-14.8c4.6-6.5,8.5-13.4,11.7-20.6l3.2-7c0.6-1.4,1.6-2.6,2.9-3.4L38,5l-3-2   l-1.8,2.6c-0.2,0.2-0.3,0.5-0.5,0.7l-6.1,7.3C20.9,20.5,15.9,28,11.8,36l-4.1,7.9C5.3,48.6,4,53.7,4,59c0,1.1,0.9,2,2,2h1   c1.1,0,2-0.9,2-2C7.9,59,7,58.1,7,57z"/>
	<path class="st1" d="M44,4l-2-1L31.5,28.3c-1,2.5-2.2,4.9-3.5,7.3L17.4,54.6c-0.9,1.6-2.3,2.7-4,3.3c-0.5,0.2-0.8,0.7-0.6,1.2   c0.1,0.4,0.6,0.7,1,0.6l1.9-0.3c2.1-0.3,4-1.5,5.1-3.3l9.7-15.8c3-4.9,5.4-10.1,7.1-15.5L44,4z"/>
	<path class="st2" d="M51.3,55.1c0.2-0.7,1.1-1.3,1.1-2.1s-0.8-1.4-1.1-2.1c-0.3-0.7,0-1.7-0.5-2.3c-0.5-0.5-1.4-0.5-2.1-0.7l0,0   c0,0-0.1,0-0.1-0.1c-0.7-0.3-1.3-1.2-2-1.2s-1.4,0.9-2,1.2c-0.1,0-0.1,0.1-0.2,0.1l0,0c-0.7,0.2-1.5,0.2-2,0.7   c-0.5,0.6-0.3,1.6-0.5,2.3c-0.2,0.7-1.1,1.3-1.1,2.1s0.8,1.4,1.1,2.1c0.3,0.7,0,1.7,0.5,2.3c0.2,0.2,0.6,0.4,0.9,0.5l0,0   c0.4,0.1,0.9,0.2,1.3,0.3c0.7,0.3,1.3,1.2,2,1.2s1.4-0.8,2-1.2c0.6-0.3,1.5-0.2,2.2-0.8C51.3,56.9,51,55.8,51.3,55.1z M49,49.2   c0,1.8-0.7,3.5-2,4.8h-1c-1.3-1.3-2-3-2-4.8l0,0c0,1.8,0.7,3.5,2,4.8h1C48.3,52.7,49,51,49,49.2L49,49.2z"/>
	<path class="st0" d="M49.7,57.9c2.1,1.4,4.4,2.3,6.9,2.7L59,61l0,0c0-3.3-1-6.4-2.8-9.2L55,50l-2.8,2.4"/>
	<path class="st0" d="M40.8,52.4L38,50l-1.2,1.8C35,54.6,34,57.7,34,61l0,0l2.4-0.4c2.4-0.4,4.6-1.3,6.6-2.7l0.1-0.1"/>
	<path d="M9,58c-0.6,0-1-0.4-1-1c0-1.7,0.5-3.5,1.5-4.9L20,37.3c4.6-6.5,8.5-13.5,11.8-20.7l3.2-7c0.5-1.2,1.4-2.3,2.5-3l1.1-0.7   c0.5-0.3,0.6-0.9,0.3-1.4c-0.1-0.1-0.2-0.2-0.3-0.3l-3-2c-0.5-0.3-1.1-0.2-1.4,0.3c0,0,0,0,0,0l-1.8,2.6c-0.1,0.2-0.3,0.4-0.5,0.6   L25.9,13c-5.8,7-10.8,14.5-15,22.6l-4.1,7.9C4.3,48.2,3,53.6,3,59c0,1.7,1.3,3,3,3h1c1.7,0,3-1.3,3-3C10,58.4,9.6,58,9,58z    M7.7,59.7C7.5,59.9,7.3,60,7,60H6c-0.6,0-1-0.4-1-1c0-5.1,1.2-10.1,3.6-14.6l4.1-7.9c4.1-7.9,9.1-15.4,14.8-22.2L33.5,7   c0.2-0.2,0.4-0.5,0.6-0.8l1.2-1.8L36.2,5c-1.3,0.9-2.4,2.2-3.1,3.7l-3.2,7c-3.2,7.2-7.1,14-11.6,20.4L7.9,51C6.7,52.7,6,54.8,6,57   C6,58.2,6.7,59.2,7.7,59.7z"/>
	<path d="M45,4.3c0.1-0.5-0.1-1-0.5-1.2l-2-1c-0.2-0.1-0.5-0.1-0.8,0c-0.3,0.1-0.5,0.3-0.6,0.6L30.6,27.9c-1,2.4-2.2,4.8-3.5,7.1   L16.5,54.1c-0.7,1.3-2,2.3-3.4,2.8c-1,0.3-1.6,1.5-1.2,2.5c0.3,0.8,1,1.3,1.9,1.3c0.1,0,0.2,0,0.3,0l1.9-0.3   c2.4-0.3,4.5-1.7,5.8-3.8l9.7-15.8c3-4.9,5.4-10.2,7.2-15.8L45,4.3z M29.6,39.8l-9.7,15.8c-1,1.6-2.6,2.6-4.4,2.9l-1.8,0.3   c1.9-0.6,3.5-2,4.5-3.7L28.9,36c1.3-2.4,2.5-4.8,3.6-7.4l10-24.3l0.3,0.1l-6.2,20C34.9,29.9,32.6,35,29.6,39.8z"/>
	<path d="M61,41c0-0.6-0.4-1-1-1h-1.9c-2.2,0-4.4,0.7-6.3,1.9l-1.3,0.9l0.5-3.1c0-0.1,0-0.1,0-0.2c0-2.5-2-4.5-4.5-4.5   S42,37,42,39.5c0,0,0,0.1,0,0.1l0.5,3.2l-1.3-0.9c-1.9-1.3-4.1-1.9-6.3-1.9H33c-0.6,0-1,0.4-1,1c0,3.5,1.6,6.7,4.3,8.9l0.4,0.3   l-0.7,1.1C34,54.2,33,57.5,33,61c0,0.6,0.4,1,1,1c0.1,0,0.1,0,0.2,0l2.4-0.4c2.4-0.4,4.7-1.3,6.8-2.7l0,0c0.2,0,0.4,0.1,0.7,0.2   c0.2,0.1,0.4,0.2,0.5,0.4c0.5,0.5,1.2,0.8,1.9,0.9c0.7-0.1,1.4-0.4,2-0.9c0.2-0.1,0.3-0.3,0.5-0.4c0.2-0.1,0.3-0.1,0.5-0.1   c2.1,1.3,4.5,2.2,6.9,2.6l2.4,0.4c0.1,0,0.1,0,0.2,0c0.6,0,1-0.4,1-1c0-3.5-1-6.8-2.9-9.7l-0.7-1.1l0.4-0.3   C59.4,47.7,61,44.5,61,41z M52.9,43.6c1.5-1,3.4-1.6,5.2-1.6h0.8c-0.3,2.5-1.5,4.8-3.5,6.3l-1.1,0.9v0c0,0,0,0,0,0l-1.9,1.7   c-0.1-0.1-0.1-0.2-0.2-0.3c-0.1-0.2-0.1-0.5-0.1-0.7c0-0.7-0.2-1.4-0.6-1.9c-0.5-0.5-1-0.7-1.7-0.8l0.3-1.7L52.9,43.6z M45,48.7   c0.3-0.2,0.6-0.4,0.8-0.6c0.2-0.2,0.4-0.3,0.7-0.4c0.2,0.1,0.5,0.3,0.7,0.4c0.3,0.2,0.5,0.4,0.8,0.6v0.5c0,1.4-0.5,2.8-1.4,3.8   h-0.1c-0.9-1.1-1.4-2.4-1.4-3.8V48.7z M46.5,37c1.4,0,2.5,1.1,2.5,2.4l-1.1,6.7c-0.4-0.3-0.9-0.5-1.4-0.5c-0.5,0-1.1,0.2-1.5,0.5   l-1-6.8C44,38.1,45.1,37,46.5,37z M34.1,42h0.8c1.8,0,3.7,0.5,5.2,1.6l2.9,2l0.2,1.6c-0.6,0.1-1.2,0.4-1.6,0.8   c-0.4,0.5-0.6,1.2-0.6,1.9c0,0.2,0,0.5-0.1,0.7c-0.1,0.1-0.1,0.2-0.2,0.3l-1.9-1.7c0,0,0,0,0,0v0l-1.1-0.9   C35.6,46.8,34.3,44.5,34.1,42z M36.2,59.6L35,59.8c0.2-2.6,1.1-5.2,2.6-7.4l0.6-0.9l1.5,1.3c0,0.1,0,0.2,0,0.3   c0,0.7,0.3,1.4,0.8,1.9c0.1,0.2,0.3,0.4,0.4,0.6c0.1,0.2,0.1,0.5,0.1,0.7c0,0.6,0.2,1.1,0.4,1.6C39.7,58.7,38,59.3,36.2,59.6z    M48.1,57.3c-0.3,0.2-0.6,0.4-0.9,0.6c-0.2,0.2-0.6,0.5-0.7,0.5c-0.2-0.1-0.5-0.3-0.7-0.4c-0.3-0.3-0.6-0.5-0.9-0.6   c-0.4-0.2-0.7-0.3-1.1-0.3c-0.3,0-0.5-0.1-0.8-0.2c-0.1-0.2-0.1-0.5-0.1-0.7c0-0.4-0.1-0.8-0.2-1.2c-0.2-0.4-0.4-0.7-0.6-1.1   c-0.2-0.2-0.3-0.4-0.4-0.7c0.1-0.3,0.2-0.5,0.4-0.7c0.3-0.3,0.5-0.7,0.6-1.1c0.1-0.4,0.2-0.8,0.2-1.2c0-0.2,0-0.5,0.1-0.7   c0,2,0.9,4,2.3,5.4c0.2,0.2,0.4,0.3,0.7,0.3h1c0.3,0,0.5-0.1,0.7-0.3c1.4-1.4,2.3-3.4,2.3-5.4c0.1,0.2,0.1,0.5,0.1,0.7   c0,0.4,0.1,0.8,0.2,1.2c0.2,0.4,0.4,0.7,0.6,1.1c0.2,0.2,0.3,0.4,0.4,0.7c-0.1,0.3-0.2,0.5-0.4,0.7c-0.6,0.6-0.8,1.5-0.8,2.3   c0,0.2,0,0.4-0.1,0.6c-0.3,0.2-0.6,0.3-0.9,0.3C48.8,57,48.4,57.1,48.1,57.3z M58,59.8l-1.2-0.2c-1.8-0.3-3.5-0.9-5.1-1.7   c0.3-0.5,0.5-1.1,0.5-1.8c0-0.2,0-0.5,0.1-0.7c0.1-0.2,0.2-0.4,0.4-0.6c0.5-0.5,0.7-1.2,0.8-1.9c0-0.1,0-0.2,0-0.3l1.5-1.3l0.6,0.9   C56.9,54.6,57.8,57.2,58,59.8z"/>
</g>
</svg>
