<?xml version="1.0" encoding="iso-8859-1"?>
<!-- Generator: Adobe Illustrator 19.0.0, SVG Export Plug-In . SVG Version: 6.00 Build 0)  -->
<svg version="1.1" id="Capa_1" xmlns="http://www.w3.org/2000/svg" xmlns:xlink="http://www.w3.org/1999/xlink" x="0px" y="0px"
	 viewBox="0 0 496.136 496.136" style="enable-background:new 0 0 496.136 496.136;" xml:space="preserve">
<g>
	<g>
		<path d="M462.168,225.904c-21.184-21.184-49.368-32.056-79.696-33.464c0.952-8.088,1.6-16.248,1.6-24.44
			c0-92.64-61.008-168-136-168s-136,75.36-136,168c0,8.2,0.64,16.352,1.592,24.44c-30.32,1.408-58.512,12.28-79.696,33.464
			c-52.72,52.72-42.632,148.592,22.488,213.704c37.04,37.04,84.024,56.272,127.368,56.272c23.144,0,45.176-5.608,64.168-16.8
			c19.264,11.44,41.384,17.056,64.472,17.056c43.528,0,90.352-19.672,127.208-56.528C504.8,374.496,514.888,278.624,462.168,225.904
			z M450.856,237.208c0.056,0.056,0.096,0.12,0.144,0.168c-13.424,14.56-19.048,24.936-24.448,34.992
			c-6.448,11.968-13.752,25.528-33.416,45.2c-19.68,19.68-33.248,26.992-45.232,33.448c-11.536,6.208-23.472,12.632-41.528,30.688
			c-1.008,1-1.88,1.96-2.832,2.944c0.448-7.248,0.384-14.616-0.272-22.064c15.32-13.904,26.376-19.912,37.032-25.656
			c11.536-6.208,23.472-12.632,41.52-30.68c18.032-18.024,24.448-29.952,30.648-41.48c5.52-10.264,11.808-21.808,26.256-37.616
			C442.976,230.184,447.088,233.44,450.856,237.208z M424.656,218.84c-14.272,16.088-20.864,28.288-26.272,38.352
			c-6.176,11.472-11.504,21.384-27.872,37.752c-16.384,16.384-26.304,21.72-37.792,27.904c-9.16,4.936-19.344,10.48-32.184,20.984
			c-6.008-28.848-19.984-57.832-41.608-83.232c0.288-0.296,0.56-0.6,0.856-0.888C308.872,210.616,376.552,195.592,424.656,218.84z
			 M271.056,68.216c3.344-11.128,7.392-24.648,8.608-46.696c50.864,17.632,88.408,76.536,88.408,146.48
			c0,8.256-0.672,16.472-1.72,24.584c-28.936,1.832-58.968,12.008-86.312,30.136c0-0.48,0.024-0.928,0.024-1.408
			c0-30.184-4.784-46.144-9.008-60.248c-3.744-12.488-6.984-23.272-6.984-46.448C264.072,91.48,267.304,80.696,271.056,68.216z
			 M240.408,59.016c3.344-11.12,6.768-22.648,7.496-43.008c0.056,0,0.112-0.008,0.168-0.008c5.344,0,10.576,0.6,15.736,1.464
			c-0.88,21.976-4.672,34.808-8.08,46.152c-3.76,12.544-7.656,25.512-7.656,51c0,25.528,3.896,38.504,7.672,51.064
			c3.904,13.024,8.328,27.792,8.328,55.632c0,4.696-0.168,9.152-0.424,13.464c-5.2,4.264-10.304,8.736-15.184,13.616
			c-0.136,0.136-0.264,0.28-0.4,0.416c-0.136-0.136-0.248-0.28-0.384-0.416c-0.424-0.424-0.888-0.792-1.312-1.208
			c1.128-7.744,1.704-16.208,1.704-25.872c0-25.536-3.896-38.512-7.672-51.072c-3.904-13.024-8.328-27.792-8.328-55.624
			C232.072,86.8,236.496,72.04,240.408,59.016z M231.832,17.56c-0.8,16.968-3.696,26.696-6.76,36.872
			c-4.216,14.072-9,30.024-9,60.184c0,30.176,4.784,46.136,9.008,60.24c3.752,12.488,6.992,23.272,6.992,46.456
			c0,4.56-0.144,8.808-0.408,12.816c-31.192-25.304-67.328-39.352-101.88-41.544c-1.04-8.112-1.712-16.328-1.712-24.584
			C128.072,91.184,173.336,27.656,231.832,17.56z M120.368,208.008c39.144,0,82.04,17.728,116.008,51.696
			c53.904,53.912,66.76,130.24,32.896,178.432c-10.968-12.192-15.72-20.952-20.664-30.12c-6.968-12.936-14.872-27.6-36.208-48.944
			c-21.344-21.344-36.008-29.248-48.976-36.232c-11.48-6.176-21.4-11.512-37.784-27.904c-16.368-16.36-21.696-26.272-27.872-37.744
			c-5.416-10.072-12.008-22.296-26.344-38.432C86.256,211.592,102.92,208.008,120.368,208.008z M67.776,428.296
			c-53.912-53.912-66.768-130.24-32.904-178.432c10.968,12.192,15.712,20.936,20.632,30.088c6.968,12.936,14.864,27.6,36.192,48.928
			c21.336,21.336,36.008,29.24,48.968,36.224c11.48,6.176,21.4,11.512,37.792,27.904c16.392,16.384,21.728,26.304,27.904,37.792
			c5.424,10.064,12.024,22.28,26.296,38.36C184.544,492.416,116.872,477.392,67.776,428.296z M258.848,450.784
			c-3.768,3.768-7.88,7.032-12.128,10.056c-14.448-15.808-20.744-27.368-26.272-37.624c-6.208-11.536-12.632-23.472-30.68-41.52
			c-18.056-18.056-29.984-24.48-41.536-30.688c-11.976-6.448-25.536-13.76-45.224-33.44c-19.664-19.664-26.976-33.232-33.424-45.208
			c-5.4-10.04-11.024-20.416-24.448-34.976c0.048-0.048,0.096-0.112,0.144-0.16c3.776-3.776,7.872-7.056,12.12-10.088
			c14.48,15.832,20.76,27.376,26.272,37.632c6.2,11.528,12.616,23.456,30.648,41.48c18.048,18.056,29.984,24.472,41.528,30.688
			c11.976,6.448,25.536,13.76,45.224,33.448c19.68,19.68,26.992,33.248,33.448,45.24c5.416,10.056,11.048,20.44,24.472,35
			C258.944,450.68,258.896,450.736,258.848,450.784z M428.368,428.296c-49.056,49.056-116.8,65.04-165.776,40.6
			c2.6-2.16,5.152-4.376,7.576-6.8c12.832-12.832,21.88-28.256,27.384-45.136l0.144,0.096c5.072-7.84,11.424-15.48,19.992-24.04
			c16.392-16.392,26.312-21.728,37.816-27.92c12.944-6.976,27.608-14.872,48.952-36.216c21.328-21.328,29.224-35.992,36.2-48.944
			c4.912-9.136,9.648-17.872,20.616-30.064C495.136,298.056,482.28,374.384,428.368,428.296z"/>
	</g>
</g>
<g>
	<g>
		<rect x="144.072" y="144" width="16" height="16"/>
	</g>
</g>
<g>
	<g>
		<rect x="168.072" y="104" width="16" height="16"/>
	</g>
</g>
<g>
	<g>
		<rect x="296.072" y="80" width="16" height="16"/>
	</g>
</g>
<g>
	<g>
		<rect x="312.072" y="152" width="16" height="16"/>
	</g>
</g>
<g>
	<g>
		<rect x="168.072" y="256" width="16" height="16"/>
	</g>
</g>
<g>
	<g>
		<rect x="56.072" y="352" width="16" height="16"/>
	</g>
</g>
<g>
	<g>
		<rect x="104.072" y="408" width="16" height="16"/>
	</g>
</g>
<g>
	<g>
		<rect x="240.072" y="344" width="16" height="16"/>
	</g>
</g>
<g>
	<g>
		<rect x="312.072" y="272" width="16" height="16"/>
	</g>
</g>
<g>
	<g>
		<rect x="344.072" y="240" width="16" height="16"/>
	</g>
</g>
<g>
	<g>
		<rect x="432.072" y="352" width="16" height="16"/>
	</g>
</g>
<g>
	<g>
		<rect x="328.072" y="432" width="16" height="16"/>
	</g>
</g>
<g>
	<g>
		<rect x="360.072" y="400" width="16" height="16"/>
	</g>
</g>
<g>
</g>
<g>
</g>
<g>
</g>
<g>
</g>
<g>
</g>
<g>
</g>
<g>
</g>
<g>
</g>
<g>
</g>
<g>
</g>
<g>
</g>
<g>
</g>
<g>
</g>
<g>
</g>
<g>
</g>
</svg>
