<?xml version="1.0" encoding="iso-8859-1"?>
<!-- Generator: Adobe Illustrator 19.0.0, SVG Export Plug-In . SVG Version: 6.00 Build 0)  -->
<svg version="1.1" id="Capa_1" xmlns="http://www.w3.org/2000/svg" xmlns:xlink="http://www.w3.org/1999/xlink" x="0px" y="0px"
	 viewBox="0 0 512.001 512.001" style="enable-background:new 0 0 512.001 512.001;" xml:space="preserve">
<rect x="50.011" y="198" style="fill:#DAE2EF;" width="130" height="108"/>
<rect x="80.011" y="158" style="fill:#5AD2E6;" width="100" height="40"/>
<rect x="220.011" y="266" style="fill:#4696E6;" width="80" height="40"/>
<rect x="300.011" y="266" style="fill:#FFD34E;" width="80" height="40"/>
<rect x="220.011" y="226" style="fill:#2AABB5;" width="80" height="40"/>
<rect x="300.011" y="226" style="fill:#4696E6;" width="80" height="40"/>
<rect x="220.011" y="186" style="fill:#FAA589;" width="80" height="40"/>
<rect x="300.011" y="186" style="fill:#2AABB5;" width="80" height="40"/>
<rect x="380.011" y="226" style="fill:#FFD34E;" width="80" height="40"/>
<rect x="380.011" y="186" style="fill:#FAA589;" width="80" height="40"/>
<rect x="114.011" y="116" style="fill:#656970;" width="50" height="42"/>
<path style="fill:#EE3C32;" d="M380.007,266l-40,40h-225v-28h-105l16,118h372.845c37.753,0,71.309-24.057,83.43-59.812L502.007,266
	H380.007z"/>
<path d="M419.016,296c-5.511,0-10.001,4.49-10.001,10s4.49,10,10.001,10c5.51,0,10.001-4.49,10.001-10S424.526,296,419.016,296z"/>
<path d="M509.895,260.028c-1.823-2.402-4.666-4.028-7.874-4.028h-32.002v-70c0-5.522-4.477-10-10.001-10H220.005
	c-5.523,0-10.001,4.478-10.001,10v110h-20.001V158c0-5.522-4.477-10-10.001-10h-6v-32c0-5.522-4.477-10-10.001-10h-50.003
	c-5.523,0-10.001,4.478-10.001,10v32h-24c-5.523,0-10.001,4.478-10.001,10v30H49.995c-5.523,0-10.001,4.478-10.001,10v70
	c0,0-29.872,0-30.001,0c-5.822,0-10.691,5.594-9.91,11.344l16.001,118c0.672,4.958,4.906,8.656,9.91,8.656H398.86
	c42.065,0,79.401-26.765,92.906-66.602c0.057-0.167,0.109-0.335,0.156-0.505c0,0,19.642-69.887,19.726-70.187
	C512.52,265.606,511.717,262.43,509.895,260.028z M390.014,196h60.003v20h-60.003V196z M390.014,236h60.003v20h-60.003V236z
	 M310.01,196h60.003v20H310.01V196z M310.01,236h60.003v20H310.01V236z M355.87,276l-20.001,20H310.01v-20H355.87z M230.005,196
	h60.003v20h-60.003V196z M230.005,236h60.003v20h-60.003V236z M230.005,276h60.003v20h-60.003V276z M124,126h30.001v22h-30.002
	L124,126L124,126z M89.998,168h80.004v20H89.998V168z M59.996,208h110.006v88h-45.003v-18c0-5.522-4.477-10-10.001-10H59.996V208z
	 M472.74,333.222C461.92,364.801,432.263,386,398.86,386H34.73l-13.289-98h83.557v18c0,5.522,4.477,10,10.001,10h264.015
	c5.51,0,10.001-4.49,10.001-10s-4.49-10-10.001-10h-14.858l20.001-20h104.666L472.74,333.222z"/>
<g>
</g>
<g>
</g>
<g>
</g>
<g>
</g>
<g>
</g>
<g>
</g>
<g>
</g>
<g>
</g>
<g>
</g>
<g>
</g>
<g>
</g>
<g>
</g>
<g>
</g>
<g>
</g>
<g>
</g>
</svg>
